#format: frame checksums
#version: 2
#hash: MD5
#tb 0: 1/30
#media_type 0: video
#codec_id 0: rawvideo
#dimensions 0: 320x180
#sar 0: 0/1
#stream#, dts,        pts, duration,     size, hash
0,          0,          0,        1,   172800, b7dfd908df35277ca14e45cf5c950d10
0,          1,          1,        1,   172800, aa0464344a23efa9f39f74d69ad0bff1
0,          2,          2,        1,   172800, aa0464344a23efa9f39f74d69ad0bff1
0,          3,          3,        1,   172800, da4ea1e3560e0efc4dc6d9e3fafd95b3
0,          4,          4,        1,   172800, da4ea1e3560e0efc4dc6d9e3fafd95b3
0,          5,          5,        1,   172800, eb74bc1e97ede279f90a16b8005f0044
0,          6,          6,        1,   172800, eb74bc1e97ede279f90a16b8005f0044
0,          7,          7,        1,   172800, f8c9c9f1f34d297cdd02007e369c1688
0,          8,          8,        1,   172800, f8c9c9f1f34d297cdd02007e369c1688
0,          9,          9,        1,   172800, c919a03eda60f9cdc59425f6ee93e3c1
0,         10,         10,        1,   172800, c919a03eda60f9cdc59425f6ee93e3c1
0,         11,         11,        1,   172800, 8f05efff2b4976cd7227d8841c5cc25e
0,         12,         12,        1,   172800, 8f05efff2b4976cd7227d8841c5cc25e
0,         13,         13,        1,   172800, 1500859112e1961ccef3053b841db11b
0,         14,         14,        1,   172800, 1500859112e1961ccef3053b841db11b
0,         15,         15,        1,   172800, 832a40309802fcdbb49bf30bb72c6386
0,         16,         16,        1,   172800, 832a40309802fcdbb49bf30bb72c6386
0,         17,         17,        1,   172800, 12fc3f240d8c54b4ad3467b1a7277308
0,         18,         18,        1,   172800, 12fc3f240d8c54b4ad3467b1a7277308
0,         19,         19,        1,   172800, c65192e6ff8dedf50816c8f121a11c11
0,         20,         20,        1,   172800, c65192e6ff8dedf50816c8f121a11c11
0,         21,         21,        1,   172800, 73e47f18480e29614a77b54e1d5b1c4f
0,         22,         22,        1,   172800, 73e47f18480e29614a77b54e1d5b1c4f
0,         23,         23,        1,   172800, da56a94a5cd43e3a49573c1da7be82c1
0,         24,         24,        1,   172800, da56a94a5cd43e3a49573c1da7be82c1
0,         25,         25,        1,   172800, 4f680263aa0037987d543cc51e8f27d5
0,         26,         26,        1,   172800, 4f680263aa0037987d543cc51e8f27d5
0,         27,         27,        1,   172800, 1e6ff06346d84b3e793b2d336bb10a69
0,         28,         28,        1,   172800, 1e6ff06346d84b3e793b2d336bb10a69
0,         29,         29,        1,   172800, c22df2bd0bedcf02f69cdcafc09980eb
0,         30,         30,        1,   172800, c22df2bd0bedcf02f69cdcafc09980eb
0,         31,         31,        1,   172800, a4b1eb8475d05318c6f8180e32847d8f
0,         32,         32,        1,   172800, a4b1eb8475d05318c6f8180e32847d8f
0,         33,         33,        1,   172800, 97de7c4c0220e4f39032db35be352e76
0,         34,         34,        1,   172800, 97de7c4c0220e4f39032db35be352e76
0,         35,         35,        1,   172800, e43e670f4732da6b837bd7676d7a9a49
0,         36,         36,        1,   172800, e43e670f4732da6b837bd7676d7a9a49
0,         37,         37,        1,   172800, abf2e0e0889f02af24dfab1b5bec1b47
0,         38,         38,        1,   172800, abf2e0e0889f02af24dfab1b5bec1b47
0,         39,         39,        1,   172800, cb6679edc38db36d5b678184ef919f6d
0,         40,         40,        1,   172800, cb6679edc38db36d5b678184ef919f6d
0,         41,         41,        1,   172800, 930cadb73af4997812fbc72a7c9c25f3
0,         42,         42,        1,   172800, 930cadb73af4997812fbc72a7c9c25f3
0,         43,         43,        1,   172800, 402b2de56defc6e4be5156fec5f5fa73
0,         44,         44,        1,   172800, 402b2de56defc6e4be5156fec5f5fa73
0,         45,         45,        1,   172800, f1d3afb138abb43389ed047da5788957
0,         46,         46,        1,   172800, f1d3afb138abb43389ed047da5788957
0,         47,         47,        1,   172800, d5f0118476ac8bd0558ae2909d126d59
0,         48,         48,        1,   172800, d5f0118476ac8bd0558ae2909d126d59
0,         49,         49,        1,   172800, 6cc59d98b934fd69a43daf89ccfb34dd
0,         50,         50,        1,   172800, 6cc59d98b934fd69a43daf89ccfb34dd
0,         51,         51,        1,   172800, 77a0876315dfb35cabe6a3d154eaea0f
0,         52,         52,        1,   172800, 77a0876315dfb35cabe6a3d154eaea0f
0,         53,         53,        1,   172800, 8d178ab3e6e796c696c2d4f1f3531506
0,         54,         54,        1,   172800, 8d178ab3e6e796c696c2d4f1f3531506
0,         55,         55,        1,   172800, d8d67fe200e5d7c635d096f389c37090
0,         56,         56,        1,   172800, d8d67fe200e5d7c635d096f389c37090
0,         57,         57,        1,   172800, eb836536eba6267ab6119a1bc3e4bf4d
0,         58,         58,        1,   172800, eb836536eba6267ab6119a1bc3e4bf4d
0,         59,         59,        1,   172800, ba456c2ba80aa2adb917d5845fe71c1e
0,         60,         60,        1,   172800, ba456c2ba80aa2adb917d5845fe71c1e
0,         61,         61,        1,   172800, c5cf67f1590d6966db8461307e3348b7
0,         62,         62,        1,   172800, c5cf67f1590d6966db8461307e3348b7
0,         63,         63,        1,   172800, 41e9d3f4c5cd2ca2d2d0d6976c9a82a5
0,         64,         64,        1,   172800, 41e9d3f4c5cd2ca2d2d0d6976c9a82a5
0,         65,         65,        1,   172800, 49e9b62574fdaf97dfaac559521b2790
0,         66,         66,        1,   172800, 49e9b62574fdaf97dfaac559521b2790
0,         67,         67,        1,   172800, 97b07ebbe5681177557e983d28dc2c1e
0,         68,         68,        1,   172800, 97b07ebbe5681177557e983d28dc2c1e
0,         69,         69,        1,   172800, 04ba5aa4920b1841e84df90c0023be87
0,         70,         70,        1,   172800, 04ba5aa4920b1841e84df90c0023be87
0,         71,         71,        1,   172800, 514ab3bab2457812f24f2e6eedce3b82
0,         72,         72,        1,   172800, 514ab3bab2457812f24f2e6eedce3b82
0,         73,         73,        1,   172800, 11c162ef289eda76e0233173bb474d2d
0,         74,         74,        1,   172800, 11c162ef289eda76e0233173bb474d2d
0,         75,         75,        1,   172800, d9c04b99ce0def03db198ddecaf20388
0,         76,         76,        1,   172800, d9c04b99ce0def03db198ddecaf20388
0,         77,         77,        1,   172800, 94dd4f41b73f72db3963fe6853a0f3d0
0,         78,         78,        1,   172800, 94dd4f41b73f72db3963fe6853a0f3d0
0,         79,         79,        1,   172800, 4c39a96b90cd4482d9a96a5616aecf9e
0,         80,         80,        1,   172800, 4c39a96b90cd4482d9a96a5616aecf9e
0,         81,         81,        1,   172800, 7cbf279d546139903cdbdaba7f90f8d0
0,         82,         82,        1,   172800, 7cbf279d546139903cdbdaba7f90f8d0
0,         83,         83,        1,   172800, cad34690c10e055ede2a4b407d6c0861
0,         84,         84,        1,   172800, cad34690c10e055ede2a4b407d6c0861
0,         85,         85,        1,   172800, 92fd931aa5bd2b0cd51b5d24bac5782e
0,         86,         86,        1,   172800, 92fd931aa5bd2b0cd51b5d24bac5782e
0,         87,         87,        1,   172800, efb9965bac8f32c4b24d18d12a487629
0,         88,         88,        1,   172800, efb9965bac8f32c4b24d18d12a487629
0,         89,         89,        1,   172800, e7ddc70ed0a1cdd69d507ec373d8b8a9
0,         90,         90,        1,   172800, e7ddc70ed0a1cdd69d507ec373d8b8a9
0,         91,         91,        1,   172800, f2aa98cf78c21ab59d502526618152bc
0,         92,         92,        1,   172800, f2aa98cf78c21ab59d502526618152bc
0,         93,         93,        1,   172800, 81958b035f1acbc5dca8c965662bfd8f
0,         94,         94,        1,   172800, 81958b035f1acbc5dca8c965662bfd8f
0,         95,         95,        1,   172800, a601fc812fb2f0c5352686d581770263
0,         96,         96,        1,   172800, a601fc812fb2f0c5352686d581770263
0,         97,         97,        1,   172800, 392e9ffc83b13dfccb84fd22a57752a4
0,         98,         98,        1,   172800, 392e9ffc83b13dfccb84fd22a57752a4
0,         99,         99,        1,   172800, 870f794cb3b509ec1323c86b67421592
0,        100,        100,        1,   172800, 870f794cb3b509ec1323c86b67421592
0,        101,        101,        1,   172800, 37919659571153099b62da50aa5dfbdd
0,        102,        102,        1,   172800, 37919659571153099b62da50aa5dfbdd
0,        103,        103,        1,   172800, 63af8d5e10c4db4b9c7108fe292ee355
0,        104,        104,        1,   172800, 63af8d5e10c4db4b9c7108fe292ee355
0,        105,        105,        1,   172800, 79234c91fc9c1fdc6e1e8a21188d3c99
0,        106,        106,        1,   172800, 79234c91fc9c1fdc6e1e8a21188d3c99
0,        107,        107,        1,   172800, 71bbc002044687b0fb85b1d174793824
0,        108,        108,        1,   172800, 71bbc002044687b0fb85b1d174793824
0,        109,        109,        1,   172800, 010947df9d5764ca4e34f893a123182a
0,        110,        110,        1,   172800, 010947df9d5764ca4e34f893a123182a
0,        111,        111,        1,   172800, 9e535a8ea45550b956677f18017a11cd
0,        112,        112,        1,   172800, 9e535a8ea45550b956677f18017a11cd
0,        113,        113,        1,   172800, a8acce79e161f68cc615b8076c110771
0,        114,        114,        1,   172800, a8acce79e161f68cc615b8076c110771
0,        115,        115,        1,   172800, faae0e2e83cc48098fc813c17fb360a1
0,        116,        116,        1,   172800, faae0e2e83cc48098fc813c17fb360a1
0,        117,        117,        1,   172800, fb5380a8dbb3073f06245dac429703ac
0,        118,        118,        1,   172800, fb5380a8dbb3073f06245dac429703ac
0,        119,        119,        1,   172800, 4cb297f59100df6de5a6daddf5fcbbdc
0,        120,        120,        1,   172800, 4cb297f59100df6de5a6daddf5fcbbdc
0,        121,        121,        1,   172800, 047b1afa3ad96f77a999e7bb58244ae4
0,        122,        122,        1,   172800, c2433237f23dc2d1625517d96a9e1ee4
0,        123,        123,        1,   172800, 8d82bd3e16e39cf96de6aa664e72f156
0,        124,        124,        1,   172800, 9a7830bc296081caef79c314a4709b2c
0,        125,        125,        1,   172800, 75d648bb7aa5607af123ca15299affb5
0,        126,        126,        1,   172800, 13e1947659cc92240616b4e3dd2672b8
0,        127,        127,        1,   172800, bae4796f388af4665720f5b8718837c7
0,        128,        128,        1,   172800, 133025206361c2a0d0098d8378734c48
0,        129,        129,        1,   172800, e9be8e3021dd13ef6624a3eddea236b0
0,        130,        130,        1,   172800, e3c235f9e9d1e06429fd14b5f09dbb05
0,        131,        131,        1,   172800, 19dd0deed030395bc34d6c1bfd73b594
0,        132,        132,        1,   172800, 5b0acb67dfe831eb1daef730fd6f23d9
0,        133,        133,        1,   172800, 4db0649dfb2f7b038ab482a181343d83
0,        134,        134,        1,   172800, 85a99d82a248cbe864e121fdcec367cd
0,        135,        135,        1,   172800, 1dc5e57694097b4f259200e837cdfba6
0,        136,        136,        1,   172800, 9d0a21dd2495df20c745f0b931e3458c
0,        137,        137,        1,   172800, fc4a99b1baeafc5dfa0942cab160e752
0,        138,        138,        1,   172800, c485a1ea47d11b075b0cb66a276bf194
0,        139,        139,        1,   172800, b797334fed11069809796f0b760b4285
0,        140,        140,        1,   172800, 8788154a2ab52f7e0878554dab08a578
0,        141,        141,        1,   172800, 0c73d672dbf92eb63474c78169e3ed02
0,        142,        142,        1,   172800, e779e283aaab0e52715fe4c071778a04
0,        143,        143,        1,   172800, 57bfc973c1951fafe96a90b42bd439b7
0,        144,        144,        1,   172800, c530b7a79d1d55eae9d5880affd8d44e
0,        145,        145,        1,   172800, 01da20827d40f282712aa3f0cc182953
0,        146,        146,        1,   172800, db1534f6a894dff55390f3f4336783c4
0,        147,        147,        1,   172800, 395411e0dc69c8828c4b93e66fcc2c8e
0,        148,        148,        1,   172800, 82751298d276b7c06221c16260a8e332
0,        149,        149,        1,   172800, a04a6edfb118849076a496be457ff425
0,        150,        150,        1,   172800, 762841f0bde6a07d14ae80b20a1de5bf
0,        151,        151,        1,   172800, fa0f3b65465c1fab3920d5a7284d0948
0,        152,        152,        1,   172800, 8b69218d90272c23d01d77770de6c8a7
0,        153,        153,        1,   172800, 844bb47f2fb07eb37c9643db92090f2f
0,        154,        154,        1,   172800, b806486d021b0affadc43e7e20969a99
0,        155,        155,        1,   172800, 21f8f6beba877c2722a3a0c0d70d9f61
0,        156,        156,        1,   172800, e0b227df422ee058e07598000f19fa96
0,        157,        157,        1,   172800, c2953929e8c3a99021d0d590e7a490aa
0,        158,        158,        1,   172800, 432ff3671a1ca57066419b9094daa4bb
0,        159,        159,        1,   172800, c9fb2ce726d8fc0bfc10aba827710f6c
0,        160,        160,        1,   172800, c29da511cd3190a35fcc9446751faf5b
0,        161,        161,        1,   172800, 1fc1bc3702283004460f37fdb5418188
0,        162,        162,        1,   172800, 1229b1334314910dabee146deeb44bda
0,        163,        163,        1,   172800, 6bd87242ca5776fe4ea979773fe24d6a
0,        164,        164,        1,   172800, f9fc0a277d3629a8d085fc43c6e84c1d
0,        165,        165,        1,   172800, be08380aef14bc8a6d9b070a130a2977
0,        166,        166,        1,   172800, 3c1f94b806f1cee5cb2d1ce45b4d0ec9
0,        167,        167,        1,   172800, 24590069e5d6ca25506956cc2cc9d7a9
0,        168,        168,        1,   172800, 7bbe02a7d20bbb781cb42c7fbc0f0a6e
0,        169,        169,        1,   172800, 85ee1c511ea5ac15c1b19ea289ae94cf
0,        170,        170,        1,   172800, 7f74b604cf58e2e6bcff5b7ec3cd002d
0,        171,        171,        1,   172800, 3c715a8e079b0990699b9c4d22d19c8c
0,        172,        172,        1,   172800, e97ee769dea4251cbd7efb4aeb0ca8f5
0,        173,        173,        1,   172800, 75e33b520cca587a82836c97e106dbac
0,        174,        174,        1,   172800, 1edbb46cdb3c01eb1b8828635606ec05
0,        175,        175,        1,   172800, a7226bd3439c0d8d328d8a8482d160d7
0,        176,        176,        1,   172800, d06b0ba57fd9d878f0ae975dd3a3ba50
0,        177,        177,        1,   172800, 0be449f80ca330f4962317e889e5d607
0,        178,        178,        1,   172800, 1327f937765a0130210b86ff8056bc1d
0,        179,        179,        1,   172800, fea9ca94c139367679b82cab54df41e2
0,        180,        180,        1,   172800, 16c2e4abd92e03b3d1d14070903d7375
0,        181,        181,        1,   172800, 8957c28c51b46a4cc8b1390fc9741a23
0,        182,        182,        1,   172800, 17b86ca544050d30fad617bdf018e211
0,        183,        183,        1,   172800, 66b664648e47c3eab1e809c67407f7d7
0,        184,        184,        1,   172800, ac42c9e2a6b71d4ca34ac8fee4d0bdb1
0,        185,        185,        1,   172800, 27f215e1b05674d0c45c32384cc70829
0,        186,        186,        1,   172800, 7d51fd2d9bab357e5c39b9bcca7152eb
0,        187,        187,        1,   172800, 73c8b09f3a24143f584017a1cf7212f8
0,        188,        188,        1,   172800, 133b06285a7bff0ff92ef29f1bf77bf4
0,        189,        189,        1,   172800, bea412cc242572dde739bf28d0cc44b4
0,        190,        190,        1,   172800, c6d77db72424e280a8cadf10a4e855cb
0,        191,        191,        1,   172800, 6e54efb783fe0206b896ce50f905096c
0,        192,        192,        1,   172800, 29ce5f94ad2d74d3c684207a3f5c8ef1
0,        193,        193,        1,   172800, 91b174888406e04fd2e5512750f2e162
0,        194,        194,        1,   172800, 39dd91fe202d2bad5f46d55240ce78a3
0,        195,        195,        1,   172800, 116868049577589cbdc3e1e288fca754
0,        196,        196,        1,   172800, 496a5e61b313e162237fbfc92854a307
0,        197,        197,        1,   172800, c5d9750ec084b0e679c8510186ec793c
0,        198,        198,        1,   172800, eb070d7e964e187a0672b934a7e99de2
0,        199,        199,        1,   172800, ac7f020f88f51d24fdec30c8789b1c5e
0,        200,        200,        1,   172800, 3c96b1026de982370f511d4f4970bc6e
0,        201,        201,        1,   172800, 2461342a42cb628646a70e303342f37c
0,        202,        202,        1,   172800, 1051fd8a11e29fa082d4b78c43240e3a
0,        203,        203,        1,   172800, 0ea857095d80ef7003ceaa25a5baaf46
0,        204,        204,        1,   172800, 9c511b403897c2f4b60dd16c78a8c905
0,        205,        205,        1,   172800, ea032fee0415c8e84beb7ba857a1bd58
0,        206,        206,        1,   172800, a5f1811e8b3b2810efa201e75430cda1
0,        207,        207,        1,   172800, b86f5ce14c92ce8545e280d0a4a000f1
0,        208,        208,        1,   172800, ee94bedc567474a0691a6cb3e8ca864b
0,        209,        209,        1,   172800, 96143ddfc5c5fe48339704f22845bb7d
0,        210,        210,        1,   172800, 9b28fbdc18128bdaaeba6cf3a89d4b36
0,        211,        211,        1,   172800, 9b28fbdc18128bdaaeba6cf3a89d4b36
0,        212,        212,        1,   172800, b71fe44aec11ca1441beeb2e66050baa
0,        213,        213,        1,   172800, b71fe44aec11ca1441beeb2e66050baa
0,        214,        214,        1,   172800, 1bcd79ec0e2909a3a7fbe3949347530b
0,        215,        215,        1,   172800, 1bcd79ec0e2909a3a7fbe3949347530b
0,        216,        216,        1,   172800, b5fa2ff2939aad3a9d7db4a9c4afde23
0,        217,        217,        1,   172800, b5fa2ff2939aad3a9d7db4a9c4afde23
0,        218,        218,        1,   172800, 3bb435bcd47a3a59924f39dd4ba702ab
0,        219,        219,        1,   172800, 3bb435bcd47a3a59924f39dd4ba702ab
0,        220,        220,        1,   172800, 2e11e9eb3fa45b0320fd899fb28877e9
0,        221,        221,        1,   172800, 2e11e9eb3fa45b0320fd899fb28877e9
0,        222,        222,        1,   172800, ae2db476826944b7e24b703fbf41e00a
0,        223,        223,        1,   172800, ae2db476826944b7e24b703fbf41e00a
0,        224,        224,        1,   172800, c71bbb0bba245b060877c0f1b3c78f13
0,        225,        225,        1,   172800, c71bbb0bba245b060877c0f1b3c78f13
0,        226,        226,        1,   172800, d53e84d8de160dd7aa9c2f05627c2a59
0,        227,        227,        1,   172800, d53e84d8de160dd7aa9c2f05627c2a59
0,        228,        228,        1,   172800, 19ad684313366a4a3e1255e865bfe7ce
0,        229,        229,        1,   172800, 19ad684313366a4a3e1255e865bfe7ce
0,        230,        230,        1,   172800, 5e66f83723f68fe86a88337f457a2061
0,        231,        231,        1,   172800, 5e66f83723f68fe86a88337f457a2061
0,        232,        232,        1,   172800, 89199e6850c642ac0f5aa08967b08863
0,        233,        233,        1,   172800, 89199e6850c642ac0f5aa08967b08863
0,        234,        234,        1,   172800, 52bd9836ad53a5b93791046202e942be
0,        235,        235,        1,   172800, 52bd9836ad53a5b93791046202e942be
0,        236,        236,        1,   172800, cfb5df03d152ac4eeadfd5fa37896aab
0,        237,        237,        1,   172800, cfb5df03d152ac4eeadfd5fa37896aab
0,        238,        238,        1,   172800, 25ee667d3607d22f8723d343d69f5b25
0,        239,        239,        1,   172800, 25ee667d3607d22f8723d343d69f5b25
0,        240,        240,        1,   172800, b35c3690d10837e09c4a3f50260fcef2
0,        241,        241,        1,   172800, b35c3690d10837e09c4a3f50260fcef2
0,        242,        242,        1,   172800, fcfc94100eadd2a49433688789d75715
0,        243,        243,        1,   172800, fcfc94100eadd2a49433688789d75715
0,        244,        244,        1,   172800, e7a178b2b73179586facd605c9ba9cef
0,        245,        245,        1,   172800, e7a178b2b73179586facd605c9ba9cef
0,        246,        246,        1,   172800, d53c46e15b8f17c4c7bfb41c21477387
0,        247,        247,        1,   172800, d53c46e15b8f17c4c7bfb41c21477387
0,        248,        248,        1,   172800, b0fce24e71a7ab7218634667b148ac5f
0,        249,        249,        1,   172800, b0fce24e71a7ab7218634667b148ac5f
0,        250,        250,        1,   172800, 36204b6b662e3b46a654e7de7325b3bb
0,        251,        251,        1,   172800, 36204b6b662e3b46a654e7de7325b3bb
0,        252,        252,        1,   172800, feea9f9b7d0da7e52d4867cb649ab94d
0,        253,        253,        1,   172800, feea9f9b7d0da7e52d4867cb649ab94d
0,        254,        254,        1,   172800, 370a5e6ae886c0e7f1d72a00299dfff6
0,        255,        255,        1,   172800, 370a5e6ae886c0e7f1d72a00299dfff6
0,        256,        256,        1,   172800, 1f4b2c51cde5b368362af02a81b89e2c
0,        257,        257,        1,   172800, 1f4b2c51cde5b368362af02a81b89e2c
0,        258,        258,        1,   172800, cf288cad5fb058191cd31451d0e0f6fd
0,        259,        259,        1,   172800, cf288cad5fb058191cd31451d0e0f6fd
0,        260,        260,        1,   172800, ee0d771428f5b3695262c51b88e1a305
0,        261,        261,        1,   172800, ee0d771428f5b3695262c51b88e1a305
0,        262,        262,        1,   172800, 2ca4818646c0c4747b8326535a0e9291
0,        263,        263,        1,   172800, 2ca4818646c0c4747b8326535a0e9291
0,        264,        264,        1,   172800, 6ee718454bc8edf95cb92762094a04f6
0,        265,        265,        1,   172800, 6ee718454bc8edf95cb92762094a04f6
0,        266,        266,        1,   172800, 5fb29975daa2f3f9cc15eb0aa472bd3b
0,        267,        267,        1,   172800, 5fb29975daa2f3f9cc15eb0aa472bd3b
0,        268,        268,        1,   172800, 1c7805357c278d4ce40a4fc799547e3c
0,        269,        269,        1,   172800, 1c7805357c278d4ce40a4fc799547e3c
0,        270,        270,        1,   172800, 614cdb926075f5733b9d34175dca81d4
0,        271,        271,        1,   172800, 614cdb926075f5733b9d34175dca81d4
0,        272,        272,        1,   172800, 8c50468192e7a1e7fcf4af3ad7afd050
0,        273,        273,        1,   172800, 8c50468192e7a1e7fcf4af3ad7afd050
0,        274,        274,        1,   172800, d8652e48c8c36b4e1e18f299d3e4530e
0,        275,        275,        1,   172800, d8652e48c8c36b4e1e18f299d3e4530e
0,        276,        276,        1,   172800, aa0c4c9327e25eb4e92c28c272ad9015
0,        277,        277,        1,   172800, aa0c4c9327e25eb4e92c28c272ad9015
0,        278,        278,        1,   172800, 9085e4f82d0ef3c9b1e6e608dbcfa39d
0,        279,        279,        1,   172800, 9085e4f82d0ef3c9b1e6e608dbcfa39d
0,        280,        280,        1,   172800, 405efe1cc8ca4c2f9d368245691e04de
0,        281,        281,        1,   172800, 405efe1cc8ca4c2f9d368245691e04de
0,        282,        282,        1,   172800, 68b54d73d1408f7cfb04ce69be8d0a17
0,        283,        283,        1,   172800, 68b54d73d1408f7cfb04ce69be8d0a17
0,        284,        284,        1,   172800, b5fade6ab66b6cdf68de5f413d70a258
0,        285,        285,        1,   172800, b5fade6ab66b6cdf68de5f413d70a258
0,        286,        286,        1,   172800, 0c6d47f5654b80e7f93bfe0f331e8b31
0,        287,        287,        1,   172800, 0c6d47f5654b80e7f93bfe0f331e8b31
0,        288,        288,        1,   172800, 02602a83c459ea0989e1f4d974cbcb58
0,        289,        289,        1,   172800, 02602a83c459ea0989e1f4d974cbcb58
0,        290,        290,        1,   172800, 2ee40c1d17abc396565bfd9d84729ae8
0,        291,        291,        1,   172800, 2ee40c1d17abc396565bfd9d84729ae8
0,        292,        292,        1,   172800, 08252d4647819a6a0d38df171ac62104
0,        293,        293,        1,   172800, 08252d4647819a6a0d38df171ac62104
0,        294,        294,        1,   172800, 638142d772594920d3a647437657fca9
0,        295,        295,        1,   172800, 638142d772594920d3a647437657fca9
0,        296,        296,        1,   172800, e472799908dda9c901a7aa4656d1d892
0,        297,        297,        1,   172800, e472799908dda9c901a7aa4656d1d892
0,        298,        298,        1,   172800, d2a43093d4fa73eb8706b812ad71a8bb
0,        299,        299,        1,   172800, d2a43093d4fa73eb8706b812ad71a8bb
0,        300,        300,        1,   172800, 56bfb30444016b6b8e17aa2d4da3be5d
0,        301,        301,        1,   172800, 56bfb30444016b6b8e17aa2d4da3be5d
0,        302,        302,        1,   172800, 3a921a2b6a2acedb27d08f01a267fb8e
0,        303,        303,        1,   172800, 3a921a2b6a2acedb27d08f01a267fb8e
0,        304,        304,        1,   172800, 78d81138dd5a719649227a4b6331dbdc
0,        305,        305,        1,   172800, 78d81138dd5a719649227a4b6331dbdc
0,        306,        306,        1,   172800, f8c1a061b8a329af1a89cbca73ad8973
0,        307,        307,        1,   172800, f8c1a061b8a329af1a89cbca73ad8973
0,        308,        308,        1,   172800, a0aa1cf4650d0dc87c157782fd56e7e4
0,        309,        309,        1,   172800, a0aa1cf4650d0dc87c157782fd56e7e4
0,        310,        310,        1,   172800, ea8982c73cb392261c52b3d73be87738
0,        311,        311,        1,   172800, ea8982c73cb392261c52b3d73be87738
0,        312,        312,        1,   172800, 778eb1c4df52e81736807affe537d07b
0,        313,        313,        1,   172800, 778eb1c4df52e81736807affe537d07b
0,        314,        314,        1,   172800, 2880a40a31541115d1c94c86f6a6747a
0,        315,        315,        1,   172800, 2880a40a31541115d1c94c86f6a6747a
0,        316,        316,        1,   172800, 188ed91d452b67d00252faaf2b901fcb
0,        317,        317,        1,   172800, 188ed91d452b67d00252faaf2b901fcb
0,        318,        318,        1,   172800, 7f40d3f68846bf64c80b62ce5f0cc144
0,        319,        319,        1,   172800, 7f40d3f68846bf64c80b62ce5f0cc144
0,        320,        320,        1,   172800, 2ed9ab393b01bfef639f9af6104d3744
0,        321,        321,        1,   172800, 2ed9ab393b01bfef639f9af6104d3744
0,        322,        322,        1,   172800, e7badcf6ee5aaaf9349d53d75e3d248c
0,        323,        323,        1,   172800, e7badcf6ee5aaaf9349d53d75e3d248c
0,        324,        324,        1,   172800, b3b0d1e0bee9fffd51998c5ba1028099
0,        325,        325,        1,   172800, b3b0d1e0bee9fffd51998c5ba1028099
0,        326,        326,        1,   172800, 24ea0f25b164ad73338197f85ccc7f99
0,        327,        327,        1,   172800, 24ea0f25b164ad73338197f85ccc7f99
0,        328,        328,        1,   172800, 39196d40e8e4d895fe588dcdeb073b11
0,        329,        329,        1,   172800, 39196d40e8e4d895fe588dcdeb073b11
0,        330,        330,        1,   172800, 39196d40e8e4d895fe588dcdeb073b11
0,        331,        331,        1,   172800, 39196d40e8e4d895fe588dcdeb073b11
